<?xml version="1.0" standalone="no"?>
<!DOCTYPE svg PUBLIC "-//W3C//DTD SVG 20010904//EN"
 "http://www.w3.org/TR/2001/REC-SVG-20010904/DTD/svg10.dtd">
<svg version="1.0" xmlns="http://www.w3.org/2000/svg"
 width="486.000000pt" height="482.000000pt" viewBox="0 0 486.000000 482.000000"
 preserveAspectRatio="xMidYMid meet">

<g transform="translate(0.000000,482.000000) scale(0.100000,-0.100000)"
fill="#000000" stroke="none">
<path d="M2344 4801 c10 -16 -12 -41 -30 -34 -8 3 -14 11 -14 19 0 45 -377
-18 -647 -107 -202 -67 -421 -174 -471 -230 -41 -45 -80 -69 -113 -69 -52 0
-367 -275 -503 -439 -58 -70 -152 -204 -205 -293 -20 -33 -20 -36 -3 -32 12 4
31 -10 62 -47 51 -59 92 -99 101 -99 12 0 -2 -37 -14 -37 -7 0 -19 -4 -27 -7
-19 -8 -53 27 -68 69 -6 17 -11 22 -11 13 -1 -26 -16 -22 -51 12 -17 17 -35
30 -40 30 -13 0 -72 -119 -64 -131 3 -6 19 -7 36 -3 27 5 30 4 24 -11 -4 -11
0 -25 10 -36 20 -22 11 -39 -21 -39 -18 0 -26 -7 -31 -25 -8 -33 -28 -32 -43
2 -7 16 -16 22 -21 17 -27 -27 -119 -325 -145 -466 -17 -93 -15 -155 5 -143 5
3 12 0 16 -6 5 -8 9 -8 14 1 5 8 10 3 14 -14 3 -14 11 -26 16 -26 14 0 13 17
-1 22 -6 2 -9 13 -6 23 5 19 5 19 12 -2 4 -13 12 -23 17 -23 7 0 6 -5 -1 -13
-6 -8 -7 -17 -3 -21 4 -4 0 -6 -8 -4 -8 1 -18 7 -22 12 -11 16 -39 -15 -33
-35 5 -14 2 -17 -8 -13 -18 6 -32 -12 -17 -21 6 -4 25 -8 42 -10 36 -5 42 -10
33 -25 -6 -9 -9 -9 -15 0 -6 9 -12 9 -30 0 -12 -6 -31 -10 -41 -7 -22 6 -24
-3 -6 -22 10 -12 9 -13 -7 -7 -19 6 -19 1 -13 -176 14 -381 91 -688 253 -1011
119 -237 249 -415 448 -612 214 -213 396 -343 657 -469 232 -113 450 -181 691
-216 149 -22 210 -25 238 -10 15 8 18 7 15 -2 -4 -10 14 -13 72 -14 55 -1 70
1 50 7 -16 4 -35 13 -43 19 -7 7 -21 10 -29 6 -21 -8 -43 14 -38 35 3 11 12
15 26 13 16 -3 15 0 -6 8 -15 7 -27 16 -27 20 0 5 -11 20 -24 33 -24 23 -25
24 -31 5 -4 -11 -12 -17 -21 -13 -7 3 -14 0 -14 -6 0 -16 -36 -13 -54 4 -8 8
-19 15 -25 15 -15 0 -14 17 2 23 7 3 1 9 -15 15 -29 12 -46 32 -27 32 7 0 10
2 7 5 -3 3 -17 1 -32 -5 -21 -7 -33 -6 -58 10 -17 10 -35 17 -39 15 -4 -3 -10
2 -13 11 -3 8 -2 12 4 9 6 -3 10 -2 10 4 0 5 -5 13 -11 17 -7 4 -2 11 13 18
12 7 22 18 20 26 -2 10 9 11 48 6 35 -5 50 -3 50 5 0 8 4 8 15 -1 8 -6 18 -9
23 -6 5 3 33 -1 62 -10 44 -13 51 -18 47 -36 -8 -29 59 -92 115 -108 27 -8 48
-22 54 -34 5 -12 20 -22 32 -24 17 -3 23 -9 19 -21 -3 -12 3 -17 21 -19 33 -3
40 -11 22 -22 -19 -12 -70 -13 -70 -2 0 9 -44 32 -60 32 -17 0 -11 -20 8 -27
9 -3 36 -14 59 -24 23 -11 49 -19 57 -19 19 0 21 16 4 24 -7 3 3 3 22 0 19 -4
41 -11 48 -17 9 -7 20 -7 37 1 20 9 23 9 18 -3 -6 -17 2 -18 32 -5 17 7 17 9
3 9 -10 1 -18 8 -18 16 0 8 6 14 12 12 7 -1 14 8 16 20 3 19 8 21 35 16 32 -6
47 -18 47 -38 0 -5 -5 -3 -10 5 -5 8 -10 11 -10 5 0 -5 4 -16 9 -24 12 -18
170 8 331 54 144 42 170 52 170 66 0 6 7 9 15 5 20 -7 91 21 241 95 120 60
144 84 98 95 -12 3 -30 14 -40 25 -16 18 -18 18 -36 3 -17 -16 -18 -16 -18 6
0 18 -3 21 -11 13 -7 -7 -25 -9 -40 -6 -28 5 -28 5 -19 -26 10 -38 -8 -43 -40
-11 -12 12 -32 25 -46 30 -13 5 -29 21 -34 36 -8 19 -15 25 -30 21 -11 -3 -20
0 -20 5 0 7 -5 6 -14 -1 -11 -9 -16 -9 -22 0 -5 9 -10 6 -15 -9 -11 -29 -29
-28 -22 0 4 14 2 20 -3 15 -5 -5 -10 -13 -10 -18 -1 -5 -2 -14 -3 -20 0 -5 -5
-8 -9 -5 -4 2 -14 0 -22 -5 -11 -8 -7 -9 17 -6 19 2 34 -1 37 -9 2 -6 15 -9
30 -7 31 6 45 -19 25 -43 -12 -14 -14 -14 -25 1 -7 10 -19 15 -26 12 -22 -8
-93 8 -91 21 2 6 -14 14 -35 18 -20 4 -43 11 -50 17 -9 7 -11 6 -7 -5 4 -9 20
-18 36 -22 33 -6 31 -26 -3 -26 -13 0 -18 -5 -15 -14 3 -8 1 -17 -6 -20 -7 -2
-2 -8 10 -11 33 -10 20 -22 -32 -29 -49 -8 -57 -19 -25 -36 11 -6 20 -15 20
-20 0 -17 -25 -11 -48 10 -12 11 -24 20 -27 20 -13 0 -67 61 -61 68 4 3 11 1
15 -7 6 -10 20 -10 66 -2 70 13 86 24 29 20 -33 -2 -49 3 -77 24 -20 15 -39
27 -42 27 -4 0 -20 13 -37 30 -16 17 -38 30 -47 30 -10 0 -30 11 -45 25 -29
27 -99 51 -104 35 -2 -6 -24 -10 -48 -10 -37 0 -44 -3 -44 -19 0 -11 5 -23 10
-26 22 -13 9 -27 -21 -23 -20 3 -33 0 -36 -9 -8 -20 -33 -16 -33 6 0 10 -7 22
-16 25 -9 3 -14 12 -11 19 3 8 -4 14 -16 15 -16 1 -18 -1 -8 -7 8 -5 9 -11 3
-15 -5 -3 -12 1 -16 9 -3 8 -15 15 -26 15 -11 0 -20 7 -20 15 0 16 -30 35 -57
35 -10 0 -33 13 -50 29 -19 17 -49 32 -73 36 -39 7 -54 28 -27 38 8 3 5 12
-11 27 -14 13 -22 30 -19 40 3 13 0 17 -9 13 -8 -3 -14 0 -14 6 0 6 7 11 16
11 8 0 12 5 9 11 -4 6 -13 8 -21 5 -8 -3 -14 -2 -14 3 0 5 16 12 35 15 20 4
33 11 29 17 -3 6 -11 8 -17 6 -7 -2 -16 2 -22 9 -13 16 -65 7 -65 -12 0 -10
-10 -14 -30 -12 -36 3 -40 18 -5 18 14 0 28 7 31 15 4 8 17 15 29 15 13 0 27
5 30 10 4 7 -3 9 -19 6 -22 -4 -24 -2 -17 17 12 31 -10 51 -35 32 -15 -11 -16
-14 -4 -15 10 0 7 -5 -8 -16 -12 -8 -22 -22 -22 -30 0 -8 -4 -14 -10 -14 -5 0
-10 -7 -10 -15 0 -13 -2 -13 -14 -3 -17 17 -8 41 13 34 9 -3 4 4 -10 17 -15
12 -29 29 -32 37 -4 12 -6 11 -6 -2 -1 -27 -18 -21 -25 8 -10 37 -25 17 -19
-23 5 -29 7 -31 29 -23 22 9 24 7 24 -16 0 -21 -3 -24 -13 -15 -10 8 -17 7
-26 -2 -7 -6 -12 -7 -11 -2 5 22 -1 29 -11 15 -8 -12 -9 -11 -5 5 5 16 1 21
-13 21 -11 0 -17 -4 -15 -8 5 -8 -3 -10 -71 -13 -22 -1 -34 0 -27 2 6 3 10 9
6 14 -3 5 2 9 10 9 9 0 16 5 16 10 0 13 -37 13 -45 0 -3 -6 -12 -10 -18 -10
-9 0 -9 2 0 8 18 12 12 54 -7 46 -36 -15 -53 -17 -46 -5 4 6 12 9 17 6 5 -4 9
-1 9 5 0 6 -7 13 -15 16 -10 4 -12 11 -7 18 5 6 8 28 6 49 -1 20 2 37 6 37 16
0 19 32 5 46 -13 14 -16 12 -25 -11 -6 -15 -8 -38 -5 -53 4 -23 3 -22 -6 4 -8
23 -20 34 -47 42 -38 12 -48 10 -38 -6 3 -6 16 -8 29 -5 12 3 19 2 15 -2 -4
-4 -2 -13 5 -19 7 -6 10 -10 8 -8 -2 1 -12 -5 -21 -13 -10 -9 -21 -15 -26 -14
-5 1 -17 -1 -28 -6 -12 -5 -21 -3 -27 6 -7 11 -10 9 -15 -8 -7 -27 -21 -31
-19 -5 2 27 16 44 31 38 8 -3 14 -1 14 4 0 6 -7 10 -16 10 -11 0 -14 5 -10 16
6 15 4 15 -10 3 -15 -12 -16 -11 -10 9 5 14 3 22 -4 22 -6 0 -8 5 -5 10 4 6
11 7 17 4 7 -4 8 -2 4 4 -4 8 0 12 11 12 24 1 64 30 41 30 -19 0 -31 27 -15
33 7 3 2 4 -9 4 -12 -1 -20 -6 -18 -12 2 -5 -9 -25 -25 -42 -21 -23 -35 -30
-50 -26 -15 4 -19 9 -12 17 7 9 1 11 -24 8 -24 -3 -35 -10 -36 -21 0 -9 -3
-11 -5 -4 -3 7 0 21 6 33 9 16 15 19 25 10 9 -8 14 -7 19 5 3 8 1 15 -4 15 -6
0 -10 4 -10 10 0 5 6 9 13 7 6 -1 11 4 10 11 -2 6 2 12 9 12 9 0 9 3 0 12 -14
14 -16 48 -2 48 5 0 12 -11 16 -25 3 -14 13 -25 21 -25 8 0 11 4 8 10 -3 5 0
20 6 32 12 22 11 22 -6 8 -17 -14 -18 -13 -12 3 4 10 7 23 7 28 0 5 10 9 21 9
18 0 19 2 9 15 -9 11 -16 12 -25 5 -9 -8 -15 -8 -20 -1 -3 6 5 16 19 23 14 6
26 15 26 20 0 5 -4 7 -9 3 -5 -3 -12 -1 -16 5 -3 6 4 10 17 10 20 1 21 2 6 11
-10 5 -25 9 -34 7 -9 -2 -19 3 -22 11 -3 9 1 11 16 7 25 -8 38 19 14 30 -9 4
-21 6 -25 5 -5 -1 -6 8 -2 19 3 11 2 20 -3 20 -5 0 -9 7 -9 15 0 8 6 15 14 15
7 0 13 5 13 11 0 5 -5 7 -10 4 -10 -6 -13 3 -13 36 0 11 -6 15 -18 12 -11 -3
-15 -11 -12 -21 4 -10 2 -13 -5 -8 -7 4 -12 3 -12 -2 0 -5 -10 -7 -23 -5 -20
4 -24 11 -24 41 0 22 7 42 16 50 14 11 13 11 -6 2 -13 -6 -23 -15 -23 -20 0
-6 -4 -10 -9 -10 -17 0 2 43 21 48 31 8 19 45 -14 47 -22 0 -27 -3 -23 -16 3
-9 -1 -29 -10 -45 -10 -19 -15 -23 -15 -11 0 9 -6 16 -12 15 -7 -2 -12 2 -11
9 2 8 -5 8 -27 0 l-30 -11 23 -21 c12 -11 18 -17 13 -13 -5 4 -18 -2 -28 -14
-28 -33 -33 -19 -26 70 1 8 9 11 20 9 10 -3 21 0 25 5 3 7 1 8 -5 4 -7 -4 -12
-1 -12 8 0 9 -4 16 -9 16 -11 0 -19 30 -14 48 3 6 11 12 19 12 8 0 14 5 14 11
0 6 -7 9 -15 5 -8 -3 -15 -1 -15 4 0 6 5 10 10 10 6 0 10 5 10 11 0 5 -5 7
-10 4 -6 -3 -10 1 -10 11 0 11 -4 14 -12 7 -9 -6 -24 -3 -46 8 -27 14 -30 18
-17 29 8 7 15 18 14 24 0 7 -2 7 -5 -1 -4 -8 -13 -9 -30 -3 -25 10 -26 9 -27
-46 -1 -23 -33 -30 -55 -11 -11 9 -18 6 -34 -17 -16 -21 -23 -24 -29 -14 -7
10 -9 11 -9 0 0 -7 -5 -10 -10 -7 -7 4 -9 -3 -5 -22 3 -15 2 -22 -1 -15 -3 6
-10 10 -15 6 -5 -3 -9 -1 -9 5 0 6 -7 8 -15 5 -8 -4 -15 -12 -15 -20 0 -11 -5
-10 -20 3 -20 17 -20 17 2 29 23 12 31 43 14 55 -10 8 1 29 15 29 5 0 9 -10
10 -22 0 -13 3 -17 6 -10 2 6 12 12 20 12 12 0 13 3 4 13 -6 8 -7 18 -3 22 4
5 -1 5 -10 2 -21 -8 -20 12 2 31 13 12 13 13 -2 8 -10 -3 -18 -1 -18 4 0 6 -7
10 -17 10 -13 0 -11 4 7 20 13 12 18 20 10 20 -9 0 -5 9 10 25 19 21 21 25 7
25 -9 0 -17 -7 -17 -16 0 -14 -2 -14 -16 -3 -14 12 -14 14 0 24 11 9 12 15 4
23 -8 8 -3 18 18 37 16 14 22 24 14 23 -10 -2 -14 4 -12 15 3 16 0 17 -18 7
-11 -6 -20 -16 -19 -23 4 -34 -2 -57 -16 -57 -9 0 -18 -6 -21 -14 -3 -8 -13
-12 -24 -9 -10 3 -16 11 -14 17 3 7 -4 23 -14 36 -15 18 -19 20 -19 7 0 -10 5
-17 11 -17 19 -1 -28 -24 -50 -25 -21 -1 -22 5 -11 78 4 27 -6 36 -19 16 -3
-6 0 -15 7 -20 10 -6 11 -9 1 -9 -6 0 -22 -10 -34 -22 -21 -21 -22 -21 -29 -2
-4 10 -8 13 -8 6 -1 -7 -6 -10 -11 -7 -6 4 -8 10 -5 15 3 4 -2 11 -11 14 -8 3
-13 2 -10 -3 3 -5 -1 -14 -9 -21 -12 -10 -18 -10 -30 0 -12 10 -15 10 -15 -4
0 -9 -7 -16 -15 -16 -8 0 -15 5 -15 11 0 5 4 8 9 5 5 -4 7 4 3 16 -3 14 -1 19
6 14 17 -10 24 11 8 27 -10 10 -11 18 -5 24 7 7 3 18 -13 32 -12 12 -24 28
-24 34 -1 7 -2 18 -3 25 0 7 -5 10 -11 7 -6 -3 -7 1 -4 10 4 9 13 14 21 11 8
-3 17 -6 19 -6 3 0 2 -4 -1 -10 -3 -6 1 -7 10 -4 14 6 14 8 -1 19 -9 6 -14 17
-10 23 4 7 2 12 -4 12 -6 0 -8 5 -3 13 13 21 12 39 -2 34 -7 -3 -17 -1 -22 4
-5 5 -9 0 -10 -13 -2 -28 -26 -43 -34 -21 -5 15 -6 14 -13 -3 -4 -11 -3 -20 3
-22 6 -2 9 -8 6 -12 -8 -13 -36 0 -28 14 3 6 -3 2 -15 -8 -26 -22 -98 -30
-105 -12 -7 18 7 38 24 34 10 -2 14 9 14 42 0 28 5 45 13 46 6 1 20 2 30 3 15
1 15 4 -4 19 -17 15 -21 27 -18 62 3 28 0 47 -8 52 -10 6 -10 8 -1 8 7 0 16
-7 21 -17 6 -9 16 -14 25 -10 11 4 18 -3 23 -26 4 -18 7 -36 6 -40 -1 -4 6 -3
17 3 26 14 41 13 41 -3 0 -13 34 -47 48 -47 4 0 18 -12 31 -25 16 -17 34 -25
58 -25 28 0 42 -8 67 -35 18 -19 39 -35 47 -35 12 0 12 2 0 9 -11 7 -9 11 9
21 25 13 42 4 20 -11 -10 -6 0 -9 35 -7 42 1 53 5 61 23 10 21 9 22 -44 24
-58 2 -96 16 -87 32 4 5 -9 10 -27 11 -45 2 -49 1 -81 -7 -22 -6 -28 -4 -25 6
1 8 -8 25 -22 39 -23 23 -23 25 -6 28 10 2 22 -2 27 -10 6 -8 9 -9 9 -1 0 18
36 26 60 13 11 -6 20 -7 20 -2 0 15 -24 32 -46 32 -13 0 -26 5 -29 10 -4 6
-11 8 -16 5 -5 -3 -28 12 -51 34 -23 23 -58 46 -77 52 -20 6 -42 19 -50 28
-10 12 -15 13 -18 4 -3 -7 -11 -13 -20 -13 -12 0 -12 2 1 16 21 21 20 27 -6
39 -32 15 -33 32 -1 30 71 -6 165 -28 170 -41 3 -9 22 -14 57 -14 36 0 64 -8
95 -26 25 -13 50 -23 57 -20 7 3 15 0 17 -7 2 -7 10 13 17 43 7 30 22 66 34
78 37 42 115 75 188 80 37 2 65 9 62 14 -3 4 21 -10 53 -32 32 -23 62 -50 68
-60 5 -10 13 -18 17 -17 3 1 17 -8 30 -19 27 -25 76 -48 133 -64 22 -6 58 -27
80 -47 22 -20 33 -32 25 -28 -12 7 -11 4 2 -11 14 -16 14 -21 2 -31 -15 -15
-54 -17 -54 -4 0 10 -79 51 -98 51 -7 0 -12 -9 -12 -20 0 -11 -4 -20 -10 -20
-18 0 -59 23 -55 30 3 5 -2 10 -10 14 -11 4 -15 -1 -15 -18 0 -14 -2 -30 -5
-38 -6 -15 65 -47 110 -49 24 -1 25 -3 8 -6 -33 -6 -28 -21 12 -37 19 -8 50
-29 67 -45 32 -30 44 -33 123 -33 43 0 45 1 45 27 0 18 5 25 19 25 11 0 23 -4
26 -10 8 -13 55 -13 55 0 0 6 -11 10 -25 10 -14 0 -25 4 -25 9 0 5 -9 11 -21
14 -15 4 -19 11 -15 25 5 13 0 22 -15 28 -19 9 -18 11 18 31 21 12 53 24 71
26 34 6 89 -9 107 -27 13 -14 11 -90 -3 -141 -16 -56 -15 -111 3 -129 8 -8 15
-21 15 -29 0 -24 22 -34 94 -41 66 -7 104 -19 117 -38 3 -5 26 -11 51 -13 25
-2 59 -10 74 -18 20 -10 53 -13 108 -11 43 2 87 -1 98 -7 11 -6 41 -12 67 -13
30 -1 58 -10 73 -22 20 -16 44 -21 104 -22 100 -4 189 -24 254 -59 57 -31 66
-61 25 -83 -18 -10 -22 -17 -15 -24 8 -8 14 -6 20 4 5 8 10 11 10 6 0 -6 7 -1
15 10 13 16 14 16 9 2 -3 -10 -1 -18 5 -18 6 0 11 5 11 10 0 6 18 10 39 10 22
0 51 4 66 10 14 5 49 14 78 18 45 7 55 5 72 -11 11 -10 36 -27 57 -38 25 -13
40 -29 48 -55 10 -30 16 -35 34 -30 11 4 45 12 74 18 37 8 51 15 48 24 -9 23
26 34 74 23 40 -9 62 -8 113 7 13 4 17 0 17 -18 0 -27 47 -58 88 -58 15 -1 38
-7 52 -15 14 -8 42 -14 63 -15 20 0 37 -5 37 -10 0 -6 8 -5 20 2 11 7 20 18
20 25 0 6 11 24 24 40 12 15 21 35 19 43 -4 13 -3 13 6 0 9 -12 14 -11 40 8
17 12 35 22 41 22 6 0 8 4 5 10 -3 5 3 10 15 10 12 0 30 5 41 10 12 7 19 7 19
1 0 -5 8 -12 18 -14 9 -3 -3 -5 -28 -6 -33 -1 -41 -4 -30 -11 8 -5 24 -10 35
-10 12 0 40 -12 63 -27 46 -30 92 -109 92 -159 0 -31 -33 -94 -56 -107 -8 -5
-11 -13 -8 -19 4 -6 2 -8 -4 -4 -6 3 -26 -3 -44 -14 -24 -14 -50 -20 -95 -20
-34 0 -65 -5 -68 -10 -4 -7 3 -8 22 -4 25 7 27 6 14 -9 -12 -15 -11 -17 5 -17
14 0 15 -3 6 -9 -7 -4 12 -6 44 -4 31 2 60 6 65 9 5 3 9 0 9 -5 0 -6 -4 -11
-10 -11 -13 0 -13 -36 0 -61 9 -16 7 -19 -10 -19 -17 0 -19 -3 -10 -19 5 -11
10 -28 10 -38 0 -12 15 -24 45 -36 47 -20 59 -37 25 -37 -14 0 -20 -7 -20 -23
0 -13 3 -27 7 -31 12 -11 14 -56 3 -56 -5 0 -10 -11 -10 -25 0 -16 -6 -25 -15
-25 -9 0 -18 -7 -21 -15 -4 -10 -20 -15 -48 -15 -42 0 -42 1 -38 30 3 21 10
30 23 30 11 0 19 5 19 10 0 13 -37 13 -45 0 -3 -6 -21 -10 -39 -10 -44 0 -61
-18 -39 -42 15 -17 14 -18 -28 -18 -59 0 -89 -9 -89 -26 0 -11 7 -12 28 -7 15
4 38 6 52 5 14 -1 35 4 47 10 27 13 46 1 20 -13 -21 -12 -22 -29 -2 -29 18 0
20 -20 3 -20 -28 -1 20 -19 55 -22 21 -1 37 -5 37 -8 0 -13 74 -30 84 -20 6 6
18 10 28 10 11 0 18 7 18 20 0 11 7 20 15 20 9 0 15 9 15 25 0 32 10 32 34 0
17 -23 65 -37 51 -15 -3 6 1 10 9 10 9 0 15 -3 15 -8 -4 -23 4 -22 26 4 23 27
23 29 6 36 -18 6 -34 42 -23 52 10 11 35 6 52 -9 16 -15 20 -12 47 32 205 329
314 620 370 990 22 148 22 467 -1 628 -59 423 -211 789 -472 1135 -51 67 -76
91 -120 114 -66 35 -148 107 -190 168 -16 23 -37 50 -46 60 -10 10 -18 25 -18
33 0 19 -77 80 -224 176 -312 206 -674 337 -1040 378 -163 19 -380 26 -372 12z
m-766 -274 c4 -20 -25 -34 -40 -19 -15 15 -1 44 19 40 10 -2 19 -11 21 -21z
m461 -66 c17 -11 7 -41 -13 -41 -19 0 -29 17 -22 35 6 17 15 18 35 6z m419
-14 c4 -20 -25 -34 -40 -19 -15 15 -1 44 19 40 10 -2 19 -11 21 -21z m336 -73
c9 -12 17 -13 40 -4 36 13 43 7 29 -30 -9 -25 -9 -32 4 -39 21 -11 9 -41 -16
-41 -11 0 -25 -9 -31 -20 -6 -11 -19 -24 -30 -30 -18 -10 -21 -7 -26 19 -4 20
-14 31 -30 35 -31 8 -30 20 1 44 14 11 25 27 25 35 0 19 10 47 17 47 3 0 11
-7 17 -16z m686 -75 c0 -6 6 -7 16 -1 17 9 54 5 54 -6 0 -3 -7 -14 -17 -24
-15 -17 -15 -19 0 -36 22 -24 22 -62 1 -62 -9 0 -23 8 -30 18 -13 16 -15 16
-32 -5 -11 -12 -27 -23 -38 -25 -15 -2 -18 2 -16 25 2 21 -1 27 -18 27 -27 0
-27 36 0 45 11 3 20 10 20 15 0 5 4 20 10 35 8 22 13 24 30 15 11 -6 20 -15
20 -21z m-1350 -49 c0 -21 -33 -29 -45 -10 -9 15 4 30 26 30 12 0 19 -7 19
-20z m1120 -20 c0 -5 -5 -10 -11 -10 -5 0 -7 5 -4 10 3 6 8 10 11 10 2 0 4 -4
4 -10z m-1606 -95 c21 -14 24 -14 36 0 20 24 33 17 28 -16 -4 -23 1 -34 19
-49 33 -26 30 -34 -14 -40 -29 -4 -38 -10 -43 -30 -8 -35 -34 -32 -40 5 -4 24
-11 31 -33 33 -32 4 -36 27 -6 42 11 6 19 19 18 28 -4 46 1 49 35 27z m934
-138 c4 -20 -25 -34 -40 -19 -15 15 -1 44 19 40 10 -2 19 -11 21 -21z m-989
-36 c19 -12 6 -41 -18 -41 -24 0 -33 13 -25 34 7 18 22 20 43 7z m1631 -71 c0
-5 -5 -10 -11 -10 -5 0 -7 5 -4 10 3 6 8 10 11 10 2 0 4 -4 4 -10z m38 -58 c3
-17 -2 -22 -17 -22 -14 0 -21 6 -21 18 0 38 33 41 38 4z m507 -173 c4 -6 22
-8 46 -4 57 10 66 -2 28 -35 -29 -24 -32 -30 -20 -44 20 -24 6 -48 -26 -45
-20 2 -38 -7 -62 -29 -45 -43 -55 -41 -48 11 4 27 2 48 -5 55 -9 9 -5 18 14
35 14 13 29 34 33 45 7 23 29 29 40 11z m-1116 -29 c110 -55 199 -155 235
-262 4 -13 16 -18 43 -18 55 0 109 -17 140 -45 23 -19 26 -27 17 -42 -13 -22
-118 -80 -159 -88 -27 -6 -33 -15 -59 -83 -24 -65 -38 -86 -90 -135 -33 -31
-90 -72 -126 -90 -59 -29 -72 -32 -155 -31 -120 1 -178 11 -251 45 -68 31
-121 84 -159 159 -24 48 -27 50 -66 50 -53 0 -168 39 -180 62 -27 50 91 148
180 148 26 0 31 5 40 38 6 20 11 47 11 59 0 36 90 144 158 190 74 50 153 71
275 72 78 1 94 -2 146 -29z m-1114 -20 c4 -6 1 -18 -6 -26 -11 -13 -14 -13
-27 0 -8 8 -11 19 -8 25 9 14 33 14 41 1z m-268 -36 c8 -21 -13 -42 -28 -27
-13 13 -5 43 11 43 6 0 13 -7 17 -16z m-707 -158 c0 -3 -7 -6 -15 -6 -9 0 -15
9 -15 21 0 18 2 19 15 5 8 -8 15 -17 15 -20z m77 -43 c3 -7 -3 -9 -16 -6 -12
3 -21 10 -21 15 0 13 32 6 37 -9z m498 -53 c4 -13 15 -20 30 -20 33 0 42 -20
17 -39 -18 -14 -20 -21 -13 -54 11 -45 -2 -57 -32 -30 -37 34 -46 35 -78 12
-40 -28 -57 -14 -34 31 13 24 14 35 5 46 -19 22 -4 44 29 44 16 0 31 6 35 15
8 22 34 18 41 -5z m2465 -84 c0 -3 -4 -8 -10 -11 -5 -3 -10 -1 -10 4 0 6 5 11
10 11 6 0 10 -2 10 -4z m-420 -25 c0 -27 -19 -36 -37 -18 -18 18 -9 37 18 37
12 0 19 -7 19 -19z m805 -45 c0 -22 -14 -29 -34 -17 -19 12 -6 43 16 39 10 -2
18 -12 18 -22z m-3735 -105 c0 -5 9 -7 20 -4 23 6 27 -9 7 -26 -11 -8 -19 -5
-37 14 -19 21 -21 25 -7 25 9 0 17 -4 17 -9z m170 -16 c15 -18 5 -35 -21 -35
-12 0 -19 7 -19 18 0 33 20 42 40 17z m544 -29 c53 -48 54 -72 4 -62 -19 4
-27 2 -22 -5 8 -13 -59 20 -67 33 -4 6 -17 15 -29 21 -31 16 -31 31 0 35 14 2
29 8 35 13 16 16 31 10 79 -35z m3653 -10 c-4 -9 -11 -16 -17 -16 -17 0 -24
31 -9 41 18 11 34 -5 26 -25z m-3047 -6 c0 -5 -4 -10 -10 -10 -5 0 -10 5 -10
10 0 6 5 10 10 10 6 0 10 -4 10 -10z m-1145 -41 c29 -29 25 -59 -7 -59 -23 0
-103 77 -86 82 29 10 71 0 93 -23z m-162 -37 c15 -10 24 -22 20 -25 -3 -4 10
-7 30 -7 48 0 47 -11 -4 -32 -40 -17 -41 -17 -64 5 -29 27 -44 77 -24 77 8 0
26 -8 42 -18z m244 -52 c3 -11 9 -20 14 -20 5 0 9 -7 9 -15 0 -8 6 -15 13 -15
14 0 67 -77 67 -97 0 -17 -40 -16 -64 2 -11 8 -31 16 -45 16 -17 1 -20 3 -8 6
9 2 17 10 17 18 0 14 -45 29 -60 20 -5 -3 -11 -1 -15 5 -3 5 -15 10 -26 10
-28 0 -24 18 6 26 30 7 33 24 5 24 -19 0 -19 1 -3 20 11 13 30 20 51 20 25 0
35 -5 39 -20z m-311 -167 c-2 -3 -14 0 -25 7 -16 8 -21 8 -21 -1 0 -7 -3 -10
-6 -6 -15 15 8 26 31 15 14 -6 23 -13 21 -15z m1265 -26 c-13 -13 -26 -3 -16
12 3 6 11 8 17 5 6 -4 6 -10 -1 -17z m1739 -7 c0 -5 -2 -10 -4 -10 -2 0 -12
-3 -22 -7 -16 -6 -17 -5 -4 10 17 19 30 22 30 7z m1258 -32 c8 -8 15 -8 27 2
22 18 30 5 17 -25 -12 -25 -7 -55 9 -55 5 0 9 -9 9 -21 0 -18 -4 -20 -29 -14
-24 5 -30 2 -36 -14 -9 -28 -33 -27 -37 2 -2 14 -11 23 -25 25 -28 4 -30 28
-3 42 13 7 20 21 20 40 0 22 5 30 18 30 10 0 23 -5 30 -12z m-4361 -20 c-3 -8
-6 -5 -6 6 -1 11 2 17 5 13 3 -3 4 -12 1 -19z m2401 -15 c12 -3 22 -9 22 -14
0 -12 -87 -11 -95 1 -11 17 6 32 29 25 11 -4 31 -9 44 -12z m441 8 c17 -11 7
-41 -13 -41 -19 0 -29 17 -22 35 6 17 15 18 35 6z m-2489 -16 c6 -8 9 -19 5
-25 -9 -15 -35 -12 -35 3 0 8 -10 19 -22 25 -22 10 -21 11 8 11 17 1 37 -6 44
-14z m1867 -4 c0 -11 -6 -17 -14 -14 -18 7 -17 33 1 33 8 0 14 -8 13 -19z
m-2108 -17 c3 -4 -2 -4 -12 -1 -10 4 -27 7 -38 7 -10 0 -19 4 -19 9 0 10 58
-3 69 -15z m2161 16 c0 -5 -7 -10 -15 -10 -8 0 -15 5 -15 10 0 6 7 10 15 10 8
0 15 -4 15 -10z m-350 -66 c0 -8 9 -14 20 -14 24 0 27 -15 5 -24 -11 -4 -14
-13 -9 -30 7 -29 -9 -42 -26 -21 -8 10 -21 13 -38 8 -22 -5 -24 -3 -19 16 3
11 1 24 -4 27 -16 9 -10 24 11 24 10 0 24 9 30 20 12 22 30 18 30 -6z m395 16
c3 -6 -1 -13 -9 -16 -21 -8 -86 4 -86 16 0 13 87 13 95 0z m1171 -45 c-6 -39
-4 -44 30 -74 25 -22 33 -36 26 -43 -7 -7 -16 -6 -30 1 -35 19 -62 14 -63 -11
-1 -13 -1 -26 0 -30 0 -4 -8 -12 -19 -18 -17 -9 -22 -7 -30 15 -13 34 -12 44
1 25 8 -11 9 -9 3 10 -8 32 -6 30 -45 35 -52 7 -57 21 -15 46 31 18 36 26 32
45 -8 30 10 40 34 19 18 -16 20 -16 42 7 31 33 41 24 34 -27z m-2066 41 c0
-11 -19 -15 -25 -6 -3 5 1 10 9 10 9 0 16 -2 16 -4z m-1355 -66 c-3 -5 -12 -7
-20 -3 -21 7 -19 13 6 13 11 0 18 -4 14 -10z m2225 0 c0 -5 -2 -10 -4 -10 -3
0 -8 5 -11 10 -3 6 -1 10 4 10 6 0 11 -4 11 -10z m-250 -10 c0 -5 -7 -10 -16
-10 -8 0 -12 5 -9 10 3 6 10 10 16 10 5 0 9 -4 9 -10z m-1880 -74 c0 -3 -4 -8
-10 -11 -5 -3 -10 -1 -10 4 0 6 5 11 10 11 6 0 10 -2 10 -4z m30 -6 c0 -5 -5
-10 -11 -10 -5 0 -7 5 -4 10 3 6 8 10 11 10 2 0 4 -4 4 -10z m2591 -3 c-1 -12
-15 -9 -19 4 -3 6 1 10 8 8 6 -3 11 -8 11 -12z m80 -19 c0 -7 2 -24 4 -38 2
-14 2 -20 -1 -14 -2 6 -19 8 -37 6 l-32 -5 19 22 c11 11 16 21 12 21 -4 0 -4
5 -1 10 9 14 35 12 36 -2z m500 -31 c-7 -18 -15 -25 -26 -21 -17 7 -17 7 -9
28 3 8 12 12 20 9 9 -3 14 2 15 13 0 11 3 14 5 8 3 -6 0 -23 -5 -37z m-291 29
c0 -11 -19 -15 -25 -6 -3 5 1 10 9 10 9 0 16 -2 16 -4z m-420 -27 c0 -7 12
-10 29 -7 24 3 27 1 23 -15 -3 -13 -11 -17 -26 -13 -11 3 -29 6 -38 6 -11 0
-18 8 -18 20 0 11 7 20 15 20 8 0 15 -5 15 -11z m888 -22 c24 3 42 1 46 -6 5
-7 -2 -11 -19 -11 -14 0 -28 -7 -31 -15 -4 -8 -12 -15 -20 -15 -8 0 -14 -8
-14 -17 -1 -27 -35 -63 -60 -63 -17 0 -20 -4 -15 -17 15 -35 17 -63 6 -63 -6
0 -11 14 -11 30 0 25 -4 30 -24 30 -54 0 -71 -21 -38 -47 16 -13 16 -14 -3
-11 -15 2 -21 12 -23 38 -5 53 -19 63 -72 56 -91 -12 -94 -12 -98 6 -3 14 7
19 49 24 47 6 50 8 34 20 -18 13 -18 14 1 14 11 0 25 -5 32 -12 9 -9 15 -9 24
0 9 9 8 12 -7 12 -17 0 -17 2 -5 10 8 5 22 7 32 4 9 -2 19 0 23 6 8 14 48 13
63 -2 9 -9 12 -7 12 9 0 27 48 46 67 27 8 -7 27 -10 51 -7z m-781 -13 c-9 -9
-28 6 -21 18 4 6 10 6 17 -1 6 -6 8 -13 4 -17z m-2494 2 c4 -10 1 -13 -9 -9
-7 3 -14 9 -14 14 0 14 17 10 23 -5z m32 -26 c-3 -5 -12 -10 -18 -10 -7 0 -6
4 3 10 19 12 23 12 15 0z m49 1 c3 -4 3 -11 0 -14 -8 -8 -34 3 -34 14 0 11 27
12 34 0z m2851 -1 c3 -5 1 -10 -4 -10 -6 0 -11 5 -11 10 0 6 2 10 4 10 3 0 8
-4 11 -10z m-2913 -112 c-7 -7 -12 -8 -12 -2 0 14 12 26 19 19 2 -3 -1 -11 -7
-17z m3238 12 c0 -5 -4 -10 -10 -10 -5 0 -10 5 -10 10 0 6 5 10 10 10 6 0 10
-4 10 -10z m-7 -77 c-7 -3 -13 -14 -13 -26 0 -16 -3 -18 -12 -9 -9 9 -8 17 2
37 10 19 16 22 24 14 8 -8 7 -13 -1 -16z m-3131 -25 c-9 -9 -12 -7 -12 12 0
19 3 21 12 12 9 -9 9 -15 0 -24z m2781 18 c7 -16 -1 -26 -20 -26 -7 0 -13 9
-13 20 0 23 25 27 33 6z m-2873 -13 c0 -7 -4 -13 -10 -13 -5 0 -10 -7 -10 -16
0 -8 5 -12 10 -9 6 3 10 4 10 1 0 -2 3 -11 6 -20 8 -20 -10 -21 -30 -1 -11 11
-16 60 -7 71 6 7 31 -3 31 -13z m150 11 c0 -8 -19 -13 -24 -6 -3 5 1 9 9 9 8
0 15 -2 15 -3z m3918 -22 c3 -18 -1 -22 -22 -22 -19 0 -26 5 -26 18 0 39 43
43 48 4z m-978 7 c0 -5 5 -7 12 -3 7 4 8 3 4 -4 -11 -18 -56 -15 -56 3 0 8 9
15 20 15 11 0 20 -5 20 -11z m210 -19 l25 -7 -28 -12 c-38 -15 -64 -14 -70 3
-10 26 19 33 73 16z m-3210 -45 c-7 -8 -17 -15 -23 -15 -6 0 -2 7 9 15 25 19
30 19 14 0z m3221 0 c1 -17 -18 -17 -25 0 -4 11 -1 15 10 13 8 -2 15 -7 15
-13z m-2871 -79 c0 -3 -4 -8 -10 -11 -5 -3 -10 -1 -10 4 0 6 5 11 10 11 6 0
10 -2 10 -4z m-100 -32 c0 -2 -7 -4 -15 -4 -8 0 -15 4 -15 10 0 5 7 7 15 4 8
-4 15 -8 15 -10z m-85 -4 c3 -6 -1 -7 -9 -4 -18 7 -21 14 -7 14 6 0 13 -4 16
-10z m-1 -32 c-4 -5 2 -15 12 -23 11 -7 16 -17 11 -21 -4 -4 -7 -1 -7 7 0 11
-2 11 -10 -1 -8 -13 -10 -12 -10 4 0 13 -5 17 -19 13 -17 -4 -18 -2 -9 12 6
10 17 18 24 18 7 0 11 -4 8 -9z m196 -3 c0 -8 -4 -15 -10 -15 -5 0 -10 7 -10
15 0 8 5 15 10 15 6 0 10 -7 10 -15z m282 -10 c22 9 29 -7 13 -29 -16 -22 -48
-15 -39 9 4 10 0 15 -12 15 -16 0 -16 2 -4 10 9 5 17 5 21 -1 3 -5 13 -7 21
-4z m-402 1 c0 -2 -7 -9 -15 -16 -12 -10 -15 -10 -15 4 0 9 7 16 15 16 8 0 15
-2 15 -4z m33 -38 c12 2 17 -3 17 -19 0 -18 -3 -20 -12 -11 -7 7 -22 12 -35
12 -16 0 -21 4 -17 15 4 8 11 12 18 8 6 -4 19 -6 29 -5z m407 8 c0 -3 -4 -8
-10 -11 -5 -3 -10 -1 -10 4 0 6 5 11 10 11 6 0 10 -2 10 -4z m-105 -36 c3 -5
1 -10 -4 -10 -6 0 -11 5 -11 10 0 6 2 10 4 10 3 0 8 -4 11 -10z m75 0 c0 -5
-5 -10 -11 -10 -5 0 -7 5 -4 10 3 6 8 10 11 10 2 0 4 -4 4 -10z m25 -160 c3
-5 1 -10 -4 -10 -6 0 -11 5 -11 10 0 6 2 10 4 10 3 0 8 -4 11 -10z m3205 -4
c0 -3 -4 -8 -10 -11 -5 -3 -10 -1 -10 4 0 6 5 11 10 11 6 0 10 -2 10 -4z
m-3415 -26 c-3 -5 -12 -10 -18 -10 -7 0 -6 4 3 10 19 12 23 12 15 0z m-325
-30 c0 -5 -5 -10 -11 -10 -5 0 -7 5 -4 10 3 6 8 10 11 10 2 0 4 -4 4 -10z
m720 -4 c0 -3 -4 -8 -10 -11 -5 -3 -10 -1 -10 4 0 6 5 11 10 11 6 0 10 -2 10
-4z m-381 -32 c-6 -8 -15 -14 -20 -14 -14 0 -11 28 4 33 20 7 29 -4 16 -19z
m455 -5 c-3 -5 -10 -7 -15 -3 -5 3 -7 10 -3 15 3 5 10 7 15 3 5 -3 7 -10 3
-15z m-50 -11 c-3 -4 -11 -5 -19 -1 -21 7 -19 12 4 10 11 0 18 -5 15 -9z
m2726 -8 c-8 -5 -26 -9 -40 -9 -23 1 -23 2 5 9 43 11 52 11 35 0z m150 -135
c0 -8 -2 -15 -4 -15 -2 0 -6 7 -10 15 -3 8 -1 15 4 15 6 0 10 -7 10 -15z m-60
-35 c11 0 23 -6 27 -14 4 -7 15 -16 23 -19 8 -3 -3 -6 -25 -6 -47 -1 -60 7
-59 34 2 32 6 41 11 23 2 -10 13 -18 23 -18z m-2848 -28 c-13 -2 -20 -8 -16
-14 4 -7 2 -8 -5 -4 -18 12 6 37 27 28 14 -6 13 -7 -6 -10z m18 -16 c0 -3 -4
-8 -10 -11 -5 -3 -10 -1 -10 4 0 6 5 11 10 11 6 0 10 -2 10 -4z m3035 -6 c3
-5 1 -10 -4 -10 -6 0 -11 5 -11 10 0 6 2 10 4 10 3 0 8 -4 11 -10z m-3052 -38
c-10 -10 -24 -17 -31 -14 -9 3 -8 8 5 18 27 20 46 17 26 -4z m3007 4 c0 -3 -4
-8 -10 -11 -5 -3 -10 -1 -10 4 0 6 5 11 10 11 6 0 10 -2 10 -4z m105 -56 c-3
-5 -15 -10 -26 -10 -10 0 -19 -4 -19 -10 0 -15 -69 -12 -85 4 -8 7 -11 16 -8
20 11 11 145 7 138 -4z m-3156 -27 c0 -11 -3 -13 -6 -5 -2 6 -9 10 -14 6 -5
-3 -9 0 -9 5 0 6 7 11 15 11 8 0 15 -8 14 -17z m236 -13 c-3 -5 -10 -10 -16
-10 -5 0 -9 5 -9 10 0 6 7 10 16 10 8 0 12 -4 9 -10z m-68 -65 c0 -11 -4 -12
-14 -4 -7 6 -13 15 -13 20 0 5 6 6 13 3 8 -3 14 -11 14 -19z m13 -29 c0 -2
-11 -6 -25 -8 -14 -3 -25 -1 -25 3 0 5 11 9 25 9 14 0 25 -2 25 -4z m2687 -82
c-3 -3 -12 -4 -19 -1 -8 3 -5 6 6 6 11 1 17 -2 13 -5z m-2570 -26 c-3 -8 -6
-5 -6 6 -1 11 2 17 5 13 3 -3 4 -12 1 -19z m43 -6 c0 -13 -12 -22 -22 -16 -10
6 -1 24 13 24 5 0 9 -4 9 -8z m10 -62 c0 -5 -2 -10 -4 -10 -3 0 -8 5 -11 10
-3 6 -1 10 4 10 6 0 11 -4 11 -10z m220 -70 c14 -26 5 -40 -27 -40 -22 0 -24
2 -13 15 11 13 10 14 -6 9 -19 -7 -19 -7 0 14 24 27 32 27 46 2z m173 -47 c-7
-3 -13 -10 -13 -17 0 -6 -9 -12 -20 -12 -11 0 -20 4 -20 9 0 5 -8 3 -17 -4
-16 -12 -17 -12 -6 2 7 9 10 19 6 22 -3 4 -1 7 5 7 7 0 12 -5 12 -10 0 -6 11
-5 28 4 15 8 29 12 32 9 3 -3 -1 -8 -7 -10z m107 -158 c14 -19 14 -19 -2 -6
-10 7 -18 18 -18 24 0 6 1 8 3 6 1 -2 9 -13 17 -24z m38 -97 c19 -22 9 -24
-12 -2 -9 8 -16 23 -15 32 0 14 2 14 6 2 3 -8 12 -23 21 -32z m530 -16 c-10
-2 -18 -12 -18 -23 0 -11 4 -18 9 -14 5 3 13 0 16 -5 5 -8 -5 -9 -32 -4 -21 4
-46 7 -57 6 -10 0 -15 2 -12 5 3 4 -1 14 -10 24 -14 16 -11 17 53 16 37 -1 60
-3 51 -5z m-448 -32 c0 -5 -4 -10 -9 -10 -6 0 -13 5 -16 10 -3 6 1 10 9 10 9
0 16 -4 16 -10z m75 -180 c11 -13 14 -20 6 -20 -13 0 -41 24 -41 34 0 12 18 5
35 -14z m820 -60 c0 -8 -8 -16 -17 -18 -13 -2 -18 3 -18 18 0 15 5 20 18 18 9
-2 17 -10 17 -18z m-507 -115 c-3 -3 -9 2 -12 12 -6 14 -5 15 5 6 7 -7 10 -15
7 -18z m-48 -45 c0 -5 -2 -10 -4 -10 -3 0 -8 5 -11 10 -3 6 -1 10 4 10 6 0 11
-4 11 -10z"/>
<path d="M2800 4310 c0 -5 5 -10 11 -10 5 0 7 5 4 10 -3 6 -8 10 -11 10 -2 0
-4 -4 -4 -10z"/>
<path d="M1640 4070 c0 -5 4 -10 9 -10 6 0 13 5 16 10 3 6 -1 10 -9 10 -9 0
-16 -4 -16 -10z"/>
<path d="M3755 3590 c-3 -5 -1 -10 4 -10 6 0 11 5 11 10 0 6 -2 10 -4 10 -3 0
-8 -4 -11 -10z"/>
<path d="M2373 3610 c-40 -10 -83 -25 -95 -32 l-23 -13 23 -3 c45 -7 11 -32
-45 -32 -12 0 -24 -4 -27 -8 -2 -4 11 -6 30 -4 20 3 34 0 34 -7 0 -5 -22 -13
-50 -17 -27 -4 -50 -11 -50 -16 0 -6 10 -8 23 -5 12 3 39 9 60 12 52 10 48
-11 -5 -24 l-43 -11 40 6 c22 2 73 7 113 11 90 7 99 -12 10 -21 -35 -4 -83 -9
-108 -13 l-45 -6 33 -9 c19 -5 30 -13 26 -19 -4 -7 10 -10 42 -8 26 2 49 -1
51 -7 4 -12 -59 -28 -177 -45 -77 -11 -99 -20 -100 -41 0 -5 7 -8 15 -8 8 0
15 6 15 14 0 16 45 25 126 25 42 0 51 -3 50 -17 -1 -23 -20 -29 -105 -38 -39
-3 -79 -13 -88 -20 -24 -18 -9 -18 101 1 58 10 98 12 119 6 21 -5 27 -10 17
-14 -34 -12 -220 -36 -234 -31 -9 3 -16 2 -16 -4 0 -16 80 -23 150 -12 36 5
115 10 176 10 91 0 413 25 420 33 2 2 -31 167 -43 214 -8 35 -76 106 -125 131
-43 22 -136 42 -193 41 -16 0 -62 -9 -102 -19z"/>
<path d="M2178 3443 c7 -3 16 -2 19 1 4 3 -2 6 -13 5 -11 0 -14 -3 -6 -6z"/>
<path d="M2136 3388 l-18 -21 38 6 c22 4 51 7 67 7 15 0 27 5 27 11 0 6 -13 8
-34 5 -19 -3 -38 -1 -41 4 -9 15 -19 12 -39 -12z"/>
<path d="M2841 3354 c0 -11 3 -14 6 -6 3 7 2 16 -1 19 -3 4 -6 -2 -5 -13z"/>
<path d="M2913 3293 c-18 -7 -16 -33 2 -33 20 0 65 22 65 32 0 9 -47 10 -67 1z"/>
<path d="M2861 3254 c0 -11 3 -14 6 -6 3 7 2 16 -1 19 -3 4 -6 -2 -5 -13z"/>
<path d="M1971 3231 c-15 -10 -10 -12 62 -26 11 -2 17 3 17 16 0 15 -7 19 -32
19 -18 0 -40 -4 -47 -9z"/>
<path d="M2846 3145 c-3 -9 -6 -22 -5 -28 0 -7 5 -1 10 12 5 13 8 26 5 28 -2
2 -6 -3 -10 -12z"/>
<path d="M2600 3125 c-69 -8 -179 -18 -245 -24 -151 -14 -218 -31 -206 -50 8
-12 22 -12 97 2 51 10 92 13 97 8 10 -10 1 -13 -90 -31 -35 -7 -63 -16 -63
-21 0 -4 12 -17 26 -28 20 -16 30 -18 40 -10 13 10 108 39 132 39 6 0 12 -4
12 -9 0 -5 -24 -15 -52 -21 -87 -20 -88 -24 -13 -60 63 -30 76 -33 169 -32 71
0 111 4 136 16 74 34 159 133 175 204 l7 32 -49 -1 c-26 -1 -104 -7 -173 -14z
m-266 -105 c-11 -11 -115 -33 -122 -25 -9 8 5 17 40 25 49 12 94 12 82 0z
m216 -50 c0 -8 -122 -50 -145 -50 -4 0 -5 7 -1 15 4 12 0 14 -17 10 -45 -9
-62 -9 -66 0 -5 11 35 22 87 24 21 1 31 -3 27 -9 -7 -11 29 -5 70 11 28 11 45
11 45 -1z"/>
<path d="M470 2820 c8 -5 20 -10 25 -10 6 0 3 5 -5 10 -8 5 -19 10 -25 10 -5
0 -3 -5 5 -10z"/>
<path d="M4445 2570 c-3 -5 -1 -10 4 -10 6 0 11 5 11 10 0 6 -2 10 -4 10 -3 0
-8 -4 -11 -10z"/>
<path d="M3520 2446 c0 -8 5 -18 10 -21 6 -3 10 1 10 9 0 8 -4 18 -10 21 -5 3
-10 -1 -10 -9z"/>
<path d="M1845 790 c-3 -5 -1 -10 4 -10 6 0 11 5 11 10 0 6 -2 10 -4 10 -3 0
-8 -4 -11 -10z"/>
<path d="M4081 4153 c43 -57 75 -89 93 -96 12 -4 -6 19 -39 53 -59 60 -80 76
-54 43z"/>
<path d="M907 2770 c-21 -11 -42 -18 -46 -16 -4 3 -18 -5 -30 -18 -27 -29 -19
-36 34 -27 25 4 35 9 28 14 -21 13 -15 27 12 27 27 0 95 25 95 34 0 14 -58 4
-93 -14z"/>
<path d="M1028 2770 c-1 -5 -28 -19 -58 -30 -49 -19 -50 -20 -15 -14 22 4 54
8 70 9 45 1 61 14 38 31 -22 16 -30 17 -35 4z"/>
<path d="M940 2695 c-30 -8 -76 -14 -102 -15 -34 0 -48 -4 -48 -14 0 -7 9 -16
20 -19 25 -6 26 -24 3 -30 -12 -3 -9 -5 8 -6 16 -1 29 5 33 15 3 8 10 12 16 9
5 -3 10 -2 10 4 0 16 55 41 88 41 16 0 35 7 42 15 16 19 6 19 -70 0z"/>
<path d="M1115 2690 c-3 -6 1 -7 9 -4 18 7 21 14 7 14 -6 0 -13 -4 -16 -10z"/>
<path d="M930 2650 c-9 -6 -10 -10 -3 -10 6 0 15 5 18 10 8 12 4 12 -15 0z"/>
<path d="M1059 2642 c-1 -4 -1 -11 0 -15 1 -5 -3 -6 -9 -2 -10 6 -105 -33 -98
-41 9 -8 113 27 130 43 18 18 18 19 -2 20 -11 1 -21 -1 -21 -5z"/>
<path d="M1119 2623 c-1 -5 -1 -11 0 -15 0 -5 -2 -7 -6 -6 -5 1 -21 -4 -38
-11 l-30 -13 23 -12 c12 -7 19 -15 16 -19 -4 -4 -2 -7 5 -7 6 0 16 11 21 25 5
14 12 25 16 25 3 0 3 -7 0 -16 -5 -14 -4 -15 9 -4 17 14 20 40 4 40 -5 0 -7 5
-4 10 3 6 1 10 -4 10 -6 0 -12 -3 -12 -7z"/>
<path d="M840 2595 c-7 -8 -20 -15 -29 -16 -12 0 -11 -2 4 -9 28 -12 47 -12
40 1 -4 6 1 17 11 24 16 12 17 14 3 15 -9 0 -22 -7 -29 -15z"/>
<path d="M26 2582 c-3 -5 1 -13 10 -16 23 -9 34 -7 34 5 0 5 -5 7 -11 3 -6 -3
-15 -1 -19 6 -5 8 -10 8 -14 2z"/>
<path d="M908 2573 c7 -3 16 -2 19 1 4 3 -2 6 -13 5 -11 0 -14 -3 -6 -6z"/>
<path d="M1050 2550 c0 -5 5 -10 10 -10 6 0 10 5 10 10 0 6 -4 10 -10 10 -5 0
-10 -4 -10 -10z"/>
<path d="M356 2502 c-3 -5 1 -9 9 -9 8 0 12 4 9 9 -3 4 -7 8 -9 8 -2 0 -6 -4
-9 -8z"/>
<path d="M1700 2460 c0 -5 5 -10 10 -10 6 0 10 5 10 10 0 6 -4 10 -10 10 -5 0
-10 -4 -10 -10z"/>
<path d="M796 2432 c-3 -5 1 -9 9 -9 8 0 12 4 9 9 -3 4 -7 8 -9 8 -2 0 -6 -4
-9 -8z"/>
<path d="M865 2360 c10 -11 20 -20 22 -20 2 0 -2 9 -9 20 -7 11 -17 20 -22 20
-5 0 -1 -9 9 -20z"/>
<path d="M933 2355 c0 -19 7 -18 31 0 19 14 19 15 -5 15 -16 0 -26 -6 -26 -15z"/>
<path d="M835 2340 c-3 -5 1 -10 9 -10 9 0 16 5 16 10 0 6 -4 10 -9 10 -6 0
-13 -4 -16 -10z"/>
<path d="M960 2277 c0 -18 74 -91 78 -78 2 6 10 11 18 11 8 0 14 10 14 25 0
19 -5 25 -22 25 -13 0 -36 7 -52 15 -35 18 -36 18 -36 2z"/>
<path d="M1116 2275 c-4 -10 1 -15 16 -15 17 0 18 2 8 15 -7 8 -14 15 -15 15
-2 0 -5 -7 -9 -15z"/>
<path d="M1160 2260 c0 -5 9 -10 20 -10 11 0 20 5 20 10 0 6 -9 10 -20 10 -11
0 -20 -4 -20 -10z"/>
<path d="M717 2234 c-4 -4 -7 -22 -7 -40 0 -25 4 -32 18 -29 9 2 21 4 25 4 5
1 7 11 5 24 -2 12 -7 21 -13 19 -5 -2 -12 4 -15 13 -3 9 -9 13 -13 9z"/>
<path d="M651 2188 c-1 -21 -17 -24 -23 -6 -3 7 -7 2 -10 -10 -6 -20 -3 -22
15 -16 29 9 30 9 24 31 -4 16 -5 16 -6 1z"/>
<path d="M1074 2184 c3 -9 6 -18 6 -20 0 -2 7 -4 15 -4 20 0 19 26 -1 34 -24
9 -27 8 -20 -10z"/>
<path d="M1120 2181 c0 -11 23 -31 37 -31 19 0 4 27 -18 33 -10 3 -19 2 -19
-2z"/>
<path d="M786 2101 c-3 -5 1 -14 8 -20 12 -10 13 -8 9 8 -6 23 -9 25 -17 12z"/>
<path d="M2570 1992 c0 -15 41 -26 49 -14 7 13 71 -14 84 -35 12 -20 50 -53
59 -53 5 0 6 4 3 10 -3 6 1 7 10 4 14 -6 45 11 45 25 0 3 -26 19 -59 34 -63
29 -191 49 -191 29z"/>
<path d="M3098 1833 c-38 -19 -39 -65 -3 -81 14 -6 25 -8 25 -3 0 5 13 11 29
14 15 3 31 14 35 24 3 10 9 24 12 31 4 7 -2 12 -16 12 -12 0 -29 4 -38 8 -10
5 -28 3 -44 -5z"/>
<path d="M4080 1815 c-14 -7 -23 -17 -20 -22 3 -4 -5 -9 -17 -11 -14 -2 -20
-8 -16 -18 3 -8 -1 -14 -11 -14 -9 0 -17 -9 -18 -22 0 -13 -2 -35 -3 -50 -2
-31 39 -88 64 -88 9 0 22 -5 28 -11 15 -15 47 7 80 54 44 63 36 115 -24 172
-32 29 -30 29 -63 10z m-41 -120 c3 -17 2 -17 -13 -3 -19 20 -21 31 -3 26 6
-3 14 -13 16 -23z m61 4 c0 -5 -9 -9 -19 -9 -11 0 -22 -6 -24 -12 -3 -7 -6 -3
-6 9 -1 13 6 23 17 26 20 4 32 -1 32 -14z m30 -9 c0 -5 -2 -10 -4 -10 -3 0 -8
5 -11 10 -3 6 -1 10 4 10 6 0 11 -4 11 -10z m22 -22 c-9 -9 -12 -7 -12 12 0
19 3 21 12 12 9 -9 9 -15 0 -24z m-122 -15 c0 -20 -16 -8 -23 17 -4 17 -3 19
9 9 8 -6 14 -18 14 -26z m40 -47 c-7 -7 -13 -7 -20 0 -6 6 -3 10 10 10 13 0
16 -4 10 -10z"/>
<path d="M1186 1772 c-2 -4 7 -9 22 -10 21 -1 24 0 12 8 -18 12 -27 12 -34 2z"/>
<path d="M3521 1771 c-11 -7 -7 -13 17 -25 17 -9 38 -16 47 -16 8 0 15 -6 15
-12 0 -9 3 -8 10 2 7 11 3 19 -15 30 -14 8 -25 18 -25 22 0 11 -32 10 -49 -1z"/>
<path d="M3840 1706 c0 -9 5 -16 11 -16 8 0 9 -4 0 -13 -6 -8 -8 -17 -4 -20 3
-4 -5 -7 -20 -7 -14 0 -32 -7 -41 -15 -8 -8 -22 -15 -31 -15 -15 0 -15 -2 -2
-15 10 -10 33 -14 67 -14 33 1 47 5 38 10 -10 7 -10 9 3 9 20 0 62 -44 52 -55
-5 -4 -3 -5 4 -1 9 5 5 17 -12 43 -14 20 -25 42 -25 49 0 8 -4 14 -9 14 -5 0
-7 8 -4 18 2 10 -3 24 -11 31 -13 11 -16 11 -16 -3z m10 -86 c-8 -5 -22 -9
-30 -9 -10 0 -8 3 5 9 27 12 43 12 25 0z"/>
<path d="M3940 1540 c0 -5 7 -10 16 -10 8 0 12 5 9 10 -3 6 -10 10 -16 10 -5
0 -9 -4 -9 -10z"/>
<path d="M4018 1433 c12 -2 32 -2 45 0 12 2 2 4 -23 4 -25 0 -35 -2 -22 -4z"/>
<path d="M3948 1373 c6 -2 12 -11 12 -18 0 -16 -39 -64 -40 -48 0 23 -30 1
-30 -22 0 -25 21 -46 28 -27 2 6 10 8 19 5 13 -5 15 -2 11 15 -5 16 -2 22 11
22 9 0 22 9 29 20 10 17 9 23 -8 40 -11 11 -26 20 -32 19 -10 0 -10 -2 0 -6z"/>
<path d="M4047 1219 c-21 -5 -45 -15 -53 -23 -16 -17 -18 -42 -4 -51 10 -6 50
29 50 45 0 6 11 10 24 10 13 0 29 7 36 15 15 18 7 18 -53 4z"/>
<path d="M2315 1190 c3 -5 8 -10 11 -10 2 0 4 5 4 10 0 6 -5 10 -11 10 -5 0
-7 -4 -4 -10z"/>
<path d="M3849 1177 c4 -4 21 -10 36 -13 16 -3 33 -8 38 -11 5 -3 7 3 5 13 -3
15 -12 19 -46 19 -23 1 -38 -3 -33 -8z"/>
<path d="M2290 1170 c0 -5 5 -10 11 -10 5 0 7 5 4 10 -3 6 -8 10 -11 10 -2 0
-4 -4 -4 -10z"/>
<path d="M2350 1134 c0 -8 5 -12 10 -9 6 4 8 11 5 16 -9 14 -15 11 -15 -7z"/>
<path d="M3820 1140 c0 -5 5 -10 10 -10 6 0 10 5 10 10 0 6 -4 10 -10 10 -5 0
-10 -4 -10 -10z"/>
<path d="M3905 1100 c-3 -5 -1 -10 4 -10 6 0 11 5 11 10 0 6 -2 10 -4 10 -3 0
-8 -4 -11 -10z"/>
<path d="M3818 1063 c7 -3 16 -2 19 1 4 3 -2 6 -13 5 -11 0 -14 -3 -6 -6z"/>
<path d="M1911 996 c-8 -9 -9 -16 -3 -16 6 0 9 -13 7 -29 -3 -24 -1 -28 15
-24 10 3 27 14 37 26 17 19 17 20 1 14 -14 -5 -18 -1 -18 14 0 11 -4 18 -9 15
-5 -4 -11 -1 -13 5 -2 7 -9 5 -17 -5z"/>
<path d="M3743 988 c-13 -6 -23 -16 -23 -22 0 -6 5 -5 12 2 18 18 37 14 33 -7
-2 -11 4 -26 14 -35 16 -14 21 -14 59 1 23 9 42 20 42 25 0 4 -21 9 -47 9 -27
1 -40 3 -30 6 16 4 15 7 -8 19 -15 8 -28 14 -29 13 0 0 -11 -5 -23 -11z m94
-44 c-3 -3 -12 -4 -19 -1 -8 3 -5 6 6 6 11 1 17 -2 13 -5z"/>
<path d="M4322 950 c0 -14 2 -19 5 -12 2 6 2 18 0 25 -3 6 -5 1 -5 -13z"/>
<path d="M3200 953 c0 -5 14 -8 30 -8 17 0 30 3 30 8 0 4 -13 7 -30 7 -16 0
-30 -3 -30 -7z"/>
<path d="M1860 930 c0 -17 -5 -19 -25 -14 -14 3 -25 2 -25 -4 0 -15 43 -23 52
-9 9 13 11 47 3 47 -3 0 -5 -9 -5 -20z"/>
<path d="M3730 910 c-19 -16 -20 -20 -7 -20 10 0 17 -4 17 -10 0 -5 5 -10 11
-10 6 0 9 6 6 14 -3 7 -1 18 5 24 20 20 -9 22 -32 2z"/>
<path d="M3680 904 c0 -8 5 -12 10 -9 6 4 8 11 5 16 -9 14 -15 11 -15 -7z"/>
<path d="M4055 910 c-3 -5 1 -10 9 -10 9 0 16 5 16 10 0 6 -4 10 -9 10 -6 0
-13 -4 -16 -10z"/>
<path d="M4160 858 c0 -52 -17 -76 -36 -50 -10 13 -26 17 -78 15 -61 -2 -65 0
-56 17 5 10 15 20 22 22 9 3 9 6 0 12 -7 4 -12 2 -12 -3 0 -6 -16 -11 -36 -11
-31 0 -36 -3 -31 -20 4 -17 0 -20 -29 -20 -25 0 -32 -4 -28 -15 3 -8 14 -17
24 -20 30 -10 21 -45 -11 -45 -21 0 -28 -5 -31 -22 -2 -19 -8 -22 -35 -20 -19
2 -33 -1 -33 -7 0 -6 -7 -11 -15 -11 -8 0 -15 -4 -15 -10 0 -5 10 -10 21 -10
19 0 20 -4 15 -36 -6 -30 -3 -39 18 -59 14 -13 26 -31 26 -40 0 -9 5 -22 12
-29 10 -10 24 -4 73 35 33 26 80 66 105 88 l45 40 -37 1 c-21 0 -38 5 -38 10
0 6 -16 10 -37 8 -30 -2 -38 1 -41 16 -4 17 0 18 50 11 103 -13 137 -9 168 20
16 15 26 33 23 40 -9 25 16 54 49 57 38 4 44 18 20 46 -15 17 -21 19 -31 9
-10 -9 -12 -9 -9 2 2 8 -5 17 -14 19 -15 3 -18 -4 -18 -40z m-293 -194 c-3 -3
-12 -4 -19 -1 -8 3 -5 6 6 6 11 1 17 -2 13 -5z m133 -30 c0 -22 -3 -24 -22
-19 -13 4 -31 9 -40 11 -36 10 -20 34 22 34 36 0 40 -2 40 -26z"/>
<path d="M3025 869 c-4 -6 -5 -12 -2 -15 2 -3 7 2 10 11 7 17 1 20 -8 4z"/>
<path d="M3680 870 c0 -5 5 -10 11 -10 5 0 7 5 4 10 -3 6 -8 10 -11 10 -2 0
-4 -4 -4 -10z"/>
<path d="M3832 868 c3 -7 13 -15 24 -17 16 -3 17 -1 5 13 -16 19 -34 21 -29 4z"/>
<path d="M3716 862 c-9 -15 -9 -14 19 -31 19 -11 19 -12 -2 -6 -17 5 -23 2
-23 -9 0 -9 7 -16 15 -16 8 0 15 -4 15 -10 0 -5 6 -10 13 -10 9 0 12 10 9 30
-2 17 -10 30 -17 30 -8 0 -15 8 -17 18 -3 13 -5 14 -12 4z"/>
<path d="M2795 820 c-3 -6 1 -7 9 -4 18 7 21 14 7 14 -6 0 -13 -4 -16 -10z"/>
<path d="M3813 823 c5 -4 -11 -27 -43 -61 -13 -14 -13 -15 5 -8 11 5 28 8 38
8 10 0 17 7 17 19 0 10 5 19 10 19 19 0 10 18 -11 23 -12 3 -19 3 -16 0z"/>
<path d="M2850 730 c20 -13 40 -13 40 0 0 6 -12 10 -27 10 -22 0 -25 -2 -13
-10z"/>
<path d="M2915 650 c3 -5 8 -10 11 -10 2 0 4 5 4 10 0 6 -5 10 -11 10 -5 0 -7
-4 -4 -10z"/>
<path d="M3116 652 c-5 -8 3 -16 21 -24 34 -14 73 -17 73 -5 0 4 -8 7 -17 6
-30 -3 -39 1 -25 10 11 7 10 9 -3 14 -9 4 -13 3 -10 -3 3 -6 0 -10 -9 -10 -8
0 -16 5 -18 12 -3 9 -6 9 -12 0z"/>
<path d="M2980 605 c-14 -8 -19 -14 -12 -15 7 0 10 -4 7 -10 -14 -22 14 -8 29
15 19 28 12 31 -24 10z"/>
<path d="M3238 602 c9 -10 19 -14 21 -9 2 5 -3 13 -10 18 -24 15 -30 10 -11
-9z"/>
<path d="M2456 594 c-20 -19 -20 -19 2 -22 13 -2 22 -11 22 -20 0 -12 3 -13 8
-5 4 7 24 13 44 15 21 1 35 4 32 7 -3 3 -22 4 -44 2 -33 -2 -39 1 -42 20 -3
22 -3 23 -22 3z"/>
<path d="M3750 580 c-9 -6 -10 -10 -3 -10 6 0 15 5 18 10 8 12 4 12 -15 0z"/>
<path d="M3185 558 c-16 -11 -22 -17 -12 -14 10 3 22 6 27 6 4 0 10 7 14 15 7
18 8 18 -29 -7z"/>
<path d="M3261 553 c12 -15 12 -16 -3 -10 -9 3 -22 -1 -29 -9 -10 -12 -9 -13
5 -8 9 4 18 0 21 -8 3 -8 12 -15 20 -15 11 0 12 4 4 13 -5 6 -9 16 -8 20 3 20
-2 34 -12 34 -8 0 -7 -6 2 -17z"/>
<path d="M2960 550 c-9 -6 -10 -10 -3 -10 6 0 15 5 18 10 8 12 4 12 -15 0z"/>
<path d="M2515 540 c4 -6 11 -8 16 -5 14 9 11 15 -7 15 -8 0 -12 -5 -9 -10z"/>
<path d="M3090 520 c-8 -5 -10 -10 -5 -10 6 0 17 5 25 10 8 5 11 10 5 10 -5 0
-17 -5 -25 -10z"/>
<path d="M3221 493 c0 -11 3 -13 6 -5 2 6 10 9 15 6 7 -4 8 -2 4 4 -11 18 -26
14 -25 -5z"/>
<path d="M2994 445 c8 -8 17 -15 20 -15 3 0 3 7 0 15 -4 8 -13 15 -21 15 -12
0 -12 -2 1 -15z"/>
<path d="M3425 430 c-3 -5 1 -10 10 -10 9 0 13 5 10 10 -3 6 -8 10 -10 10 -2
0 -7 -4 -10 -10z"/>
<path d="M2930 300 c0 -5 7 -10 15 -10 8 0 15 5 15 10 0 6 -7 10 -15 10 -8 0
-15 -4 -15 -10z"/>
<path d="M2376 162 c-3 -5 1 -9 9 -9 8 0 15 4 15 9 0 4 -4 8 -9 8 -6 0 -12 -4
-15 -8z"/>
</g>
</svg>
